<?xml version="1.0" ?><!DOCTYPE svg  PUBLIC '-//W3C//DTD SVG 1.1//EN'  'http://www.w3.org/Graphics/SVG/1.1/DTD/svg11.dtd'><svg enable-background="new 0 0 64 64" height="64px" id="Layer_1" version="1.1" viewBox="0 0 64 64" width="64px" xml:space="preserve" xmlns="http://www.w3.org/2000/svg" xmlns:xlink="http://www.w3.org/1999/xlink"><g><path d="M13.782,52.114v1.844c0,0.552,0.448,1,1,1s1-0.448,1-1v-1.844c0-0.552-0.448-1-1-1   S13.782,51.562,13.782,52.114" fill="#231F20"/><path d="M32.746,52.114v1.844c0,0.552,0.448,1,1,1s1-0.448,1-1v-1.844c0-0.552-0.448-1-1-1   S32.746,51.562,32.746,52.114" fill="#231F20"/></g><g><path d="M36.958,19.991V9c-0.004-2.207-1.793-3.996-4-4H14.938c-2.207,0.004-3.996,1.793-4,4v11L36.958,19.991z    M16.074,11c0-0.552,0.448-1,1-1s1,0.448,1,1v5c0,0.552-0.448,1-1,1s-1-0.448-1-1V11z" fill="#231F20"/><rect fill="#231F20" height="4" width="3" x="20" y="26"/><path d="M10.938,49.114c0.004,2.207,1.793,3.996,4,4h18.021c2.207-0.004,3.996-1.793,4-4V22H10.938V49.114z M26,46   h-4c-0.552,0-1-0.448-1-1s0.448-1,1-1h4c0.552,0,1,0.448,1,1S26.552,46,26,46z M16,30h2v-5c0-0.263,0.106-0.521,0.293-0.707   C18.479,24.106,18.737,24,19,24h5c0.263,0,0.521,0.106,0.707,0.293C24.894,24.479,25,24.737,25,25v5h7c0.552,0,1,0.448,1,1   s-0.448,1-1,1h-8h-5h-3c-0.552,0-1-0.448-1-1S15.448,30,16,30z M16,40h8v-5c0-0.263,0.106-0.521,0.293-0.707   C24.479,34.106,24.737,34,25,34h5c0.263,0,0.521,0.106,0.707,0.293C30.894,34.479,31,34.737,31,35v5h1c0.552,0,1,0.448,1,1   s-0.448,1-1,1h-2h-5h-9c-0.552,0-1-0.448-1-1S15.448,40,16,40z" fill="#231F20"/><rect fill="#231F20" height="4" width="3" x="26" y="36"/></g><path d="M39.002,22c0,0.004-0.002,0.006-0.002,0.01v27.51c0.004,1.045,0.383,2.059,0.964,2.933  c0.586,0.871,1.385,1.615,2.362,2.034l7.557,3.212C50.344,57.895,50.814,58,51.281,58c0.754,0.006,1.497-0.303,1.986-0.858  c0.497-0.553,0.734-1.294,0.733-2.09V27.72" fill="#231F20"/></svg>