<?xml version="1.0" ?><!DOCTYPE svg  PUBLIC '-//W3C//DTD SVG 1.1//EN'  'http://www.w3.org/Graphics/SVG/1.1/DTD/svg11.dtd'><svg enable-background="new 0 0 64 64" height="64px" id="Layer_1" version="1.1" viewBox="0 0 64 64" width="64px" xml:space="preserve" xmlns="http://www.w3.org/2000/svg" xmlns:xlink="http://www.w3.org/1999/xlink"><g><path d="M22,55c-0.552,0-1,0.448-1,1v2c0,0.552,0.448,1,1,1s1-0.448,1-1v-2C23,55.448,22.552,55,22,55z" fill="#231F20"/><path d="M42,55c-0.552,0-1,0.448-1,1v2c0,0.552,0.448,1,1,1s1-0.448,1-1v-2C43,55.448,42.552,55,42,55z" fill="#231F20"/></g><g><path d="M46,21V9c-0.004-2.207-1.793-3.996-4-4H22c-2.207,0.004-3.996,1.793-4,4v12H46z M23,11c0-0.552,0.448-1,1-1   s1,0.448,1,1v6c0,0.552-0.448,1-1,1s-1-0.448-1-1V11z" fill="#231F20"/><path d="M18,23v30c0.004,2.207,1.793,3.996,4,4h20c2.207-0.004,3.996-1.793,4-4V23H18z M25,33c0,0.552-0.448,1-1,1   s-1-0.448-1-1v-6c0-0.552,0.448-1,1-1s1,0.448,1,1V33z" fill="#231F20"/></g></svg>