<?xml version="1.0" ?><!DOCTYPE svg  PUBLIC '-//W3C//DTD SVG 1.1//EN'  'http://www.w3.org/Graphics/SVG/1.1/DTD/svg11.dtd'><svg enable-background="new 0 0 64 64" height="64px" id="Layer_1" version="1.1" viewBox="0 0 64 64" width="64px" xml:space="preserve" xmlns="http://www.w3.org/2000/svg" xmlns:xlink="http://www.w3.org/1999/xlink"><g><path d="M32,30h-7v-5c0-0.263-0.106-0.521-0.293-0.707C24.521,24.106,24.263,24,24,24h-5   c-0.263,0-0.521,0.106-0.707,0.293C18.106,24.479,18,24.737,18,25v5h-2c-0.552,0-1,0.448-1,1s0.448,1,1,1h3h5h8   c0.552,0,1-0.448,1-1S32.552,30,32,30z M20,26h3v4h-3V26z" fill="#231F20"/><path d="M32,40h-1v-5c0-0.263-0.106-0.521-0.293-0.707C30.521,34.106,30.263,34,30,34h-5   c-0.263,0-0.521,0.106-0.707,0.293C24.106,34.479,24,34.737,24,35v5h-8c-0.552,0-1,0.448-1,1s0.448,1,1,1h9h5h2   c0.552,0,1-0.448,1-1S32.552,40,32,40z M26,36h3v4h-3V36z" fill="#231F20"/><path d="M26,44h-4c-0.552,0-1,0.448-1,1s0.448,1,1,1h4c0.552,0,1-0.448,1-1S26.552,44,26,44z" fill="#231F20"/><path d="M17.074,17c0.552,0,1-0.448,1-1v-5c0-0.552-0.448-1-1-1s-1,0.448-1,1v5C16.074,16.552,16.521,17,17.074,17z   " fill="#231F20"/><path d="M50.011,26.434c0.014-0.028,0.038-0.048,0.049-0.078c0.196-0.516-0.063-1.094-0.579-1.291L37.418,20.47   c-0.112-0.174-0.264-0.318-0.459-0.396V9c-0.004-2.207-1.793-3.996-4-4H14.938c-2.207,0.004-3.996,1.793-4,4v40.114   c0.003,1.802,1.205,3.308,2.844,3.808v1.036c0,0.552,0.448,1,1,1s1-0.448,1-1v-0.844h16.964v0.844c0,0.552,0.448,1,1,1s1-0.448,1-1   v-1.287c0.374-0.189,0.721-0.422,1.017-0.714c0.07,0.123,0.132,0.25,0.209,0.368c0.592,0.896,1.397,1.661,2.382,2.093l7.62,3.305   c0.464,0.201,0.939,0.31,1.409,0.31c0.76,0.007,1.509-0.312,2.003-0.884c0.5-0.569,0.74-1.332,0.738-2.15l0-28.125   C50.125,26.714,50.078,26.568,50.011,26.434z M13.526,7.588C13.893,7.223,14.388,7,14.938,7h18.021   c0.549,0,1.044,0.223,1.412,0.588C34.736,7.956,34.958,8.451,34.958,9v11H12.938V9C12.938,8.451,13.16,7.956,13.526,7.588z    M34.37,50.526c-0.367,0.366-0.862,0.588-1.412,0.588H14.938c-0.549,0-1.044-0.223-1.412-0.588   c-0.366-0.367-0.588-0.862-0.588-1.412V22h22.021v27.114C34.958,49.664,34.736,50.159,34.37,50.526z M48.125,55   c-0.001,0.443-0.124,0.697-0.24,0.83c-0.122,0.129-0.244,0.197-0.501,0.204c-0.157,0-0.364-0.037-0.613-0.145l-7.62-3.305   c-0.529-0.225-1.1-0.731-1.506-1.355c-0.412-0.621-0.649-1.347-0.645-1.921V22.451l11.16,4.251   c-0.011,0.058-0.035,0.111-0.035,0.173L48.125,55z" fill="#231F20"/></g></svg>