<?xml version="1.0" ?><!DOCTYPE svg  PUBLIC '-//W3C//DTD SVG 1.1//EN'  'http://www.w3.org/Graphics/SVG/1.1/DTD/svg11.dtd'><svg enable-background="new 0 0 64 64" height="64px" id="Layer_1" version="1.1" viewBox="0 0 64 64" width="64px" xml:space="preserve" xmlns="http://www.w3.org/2000/svg" xmlns:xlink="http://www.w3.org/1999/xlink"><g><path d="M42,5H22c-2.207,0.004-3.996,1.793-4,4v44c0.003,1.859,1.28,3.408,3,3.857V58c0,0.552,0.448,1,1,1   s1-0.448,1-1v-1h18v1c0,0.552,0.448,1,1,1s1-0.448,1-1v-1.143c1.72-0.449,2.997-1.998,3-3.857V9C45.996,6.793,44.207,5.004,42,5z    M20.588,7.588C20.956,7.223,21.451,7,22,7h20c0.549,0,1.044,0.223,1.412,0.588C43.777,7.956,44,8.451,44,9v12H20V9   C20,8.451,20.223,7.956,20.588,7.588z M43.412,54.412C43.044,54.777,42.549,55,42,55H22c-0.549,0-1.044-0.223-1.412-0.588   C20.223,54.044,20,53.549,20,53V23h24v30C44,53.549,43.777,54.044,43.412,54.412z" fill="#231F20"/><path d="M24,18c0.552,0,1-0.448,1-1v-6c0-0.552-0.448-1-1-1s-1,0.448-1,1v6C23,17.552,23.448,18,24,18z" fill="#231F20"/><path d="M24,26c-0.552,0-1,0.448-1,1v6c0,0.552,0.448,1,1,1s1-0.448,1-1v-6C25,26.448,24.552,26,24,26z" fill="#231F20"/></g></svg>